<svg xmlns="http://www.w3.org/2000/svg" viewBox="-15 -25 45 45">
  <style>
    @keyframes hop { 0%,100%{transform:translateY(0)} 40%{transform:translateY(-1.5px)} }
    #body-js { animation: hop 1.1s ease-in-out infinite; }

  </style>
  <g id="shadow-js" style="transform-origin: 7.5px 15px">
    <ellipse cx="7.5" cy="17.0" rx="6.4" ry="1.35" fill="rgba(47,32,18,0.15)"/>
  </g>
  <g id="body-js">
    <rect x="-1.4" y="8.2" width="3.4" height="2.1" rx="1.05" fill="#2c2c2e"/><rect x="13.0" y="8.2" width="3.4" height="2.1" rx="1.05" fill="#2c2c2e"/><path d="M2.0 2.4 C3.2 -5.6, 11.8 -6.2, 13.6 1.6 C16.4 3.4, 15.8 10.8, 12.2 13.8 C9.8 16.4, 4.4 16.2, 2.2 13.4 C-0.8 10.6, -0.4 5.2, 2.0 2.4 Z" fill="#2c2c2e"/><ellipse cx="7.2" cy="10.8" rx="5.0" ry="2.4" fill="#000" opacity="0.16"/><ellipse cx="5.0" cy="1.6" rx="1.7" ry="2.6" fill="#5c5c62" opacity="0.55"/><path d="M6.1 7.4 q1.4 1.15 2.8 0" fill="none" stroke="#d8d6d0" stroke-width="0.45" stroke-linecap="round"/>
    
  </g>
  <g id="eyes-js">
    <path d="M4.2 4.6 q1.05 1.1 2.1 0" fill="none" stroke="#f2efe8" stroke-width="0.7" stroke-linecap="round"/><path d="M8.9 4.6 q1.05 1.1 2.1 0" fill="none" stroke="#f2efe8" stroke-width="0.7" stroke-linecap="round"/>
  </g>
</svg>
