<svg xmlns="http://www.w3.org/2000/svg" viewBox="-15 -25 45 45" width="500" height="500" shape-rendering="crispEdges">
<defs><style>
#arm-L { transform-origin: 2.25px 9.5px; } #arm-R { transform-origin: 13.75px 9.5px; }


.recoil { transform-origin: 7.5px 15px; animation: recoil 2.5s ease-out both; }
@keyframes recoil { 0% { transform: translateX(0); } 8% { transform: translateX(-1.2px) rotate(-3deg); } 30%,100% { transform: translateX(0) rotate(0); } }
#arm-R { animation: wag 0.5s infinite alternate ease-in-out; }
@keyframes wag { from { transform: rotate(-95deg); } to { transform: rotate(-120deg); } }
#shadow-js { transform-origin: 7.5px 15px; }

.bubble { transform-origin: 7.5px -6px; animation: pop 0.45s ease-out both; }
@keyframes pop { 0% { transform: scale(0); opacity: 0; } 70% { transform: scale(1.08); opacity: 1; } 100% { transform: scale(1); opacity: 1; } }

</style></defs>
<g id="shadow-js"><rect x="2.5" y="15.3" width="11" height="0.9" fill="#000000" opacity="0.35"/></g>
<g id="leg-L"><rect x="4" y="13.4" width="3" height="1.4" fill="#294A71"/><rect x="3.6" y="14.6" width="3.6" height="0.8" fill="#111111"/></g><g id="leg-R"><rect x="9" y="13.4" width="3" height="1.4" fill="#294A71"/><rect x="8.8" y="14.6" width="3.6" height="0.8" fill="#111111"/></g>
<g id="body-js"><g class="recoil">
<g id="arm-L">
<rect x="1.5" y="9.3" width="1.5" height="4" fill="#426B98"/>
<rect x="1.6" y="13.1" width="1.3" height="1.1" fill="#F0CBAB"/>
</g>
<g id="arm-R">
<rect x="13" y="9.3" width="1.5" height="4" fill="#426B98"/>
<rect x="13.1" y="13.1" width="1.3" height="1.1" fill="#F0CBAB"/>
</g>
<rect x="3" y="9" width="10" height="4.6" fill="#426B98"/>
<polygon points="6,9 10,9 8,11.6" fill="#FFFFFF"/>
<polygon points="5.2,9 6.2,9 7.6,11.8 7.1,12.6" fill="#18263A"/>
<polygon points="9.8,9 10.8,9 8.9,12.6 8.4,11.8" fill="#18263A"/>
<g><rect x="7.55" y="9.3" width="0.9" height="0.7" fill="#D62828"/><polygon points="7.5,10 8.5,10 8.65,14.4 8,15.1 7.35,14.4" fill="#D62828"/></g>

<g id="head"><path d="M2.5 -.6 L5 -2.7 L11 -2.7 L13.5 -.4 L14.6 2.6 L14.8 5.2 L13.6 7.3 L11.2 8.9 L5 8.9 L2.7 7.4 L1.2 5.1 L1.4 2 Z" fill="#EBC9B0"/><ellipse cx="1.5" cy="3.8" rx="0.8" ry="1.6" fill="#EBC9B0"/><ellipse cx="14.0" cy="3.8" rx="0.8" ry="1.6" fill="#EBC9B0"/><path d="M1.3 3 L1.6 4.4 M14.1 3 L13.9 4.4" fill="none" stroke="#CEA98F" stroke-width="0.25" stroke-linecap="round" stroke-linejoin="round"/><path d="M1.4 3 L.8 .3 L1.3 -2 L3.5 -3.6 L6 -4 L8.2 -3.7 L10.3 -4 L13 -2.8 L14.3 -1 L15.1 1 L14.5 4 L13.5 3 L13 -.1 L11 -1.4 L8.2 -1.8 L5 -1.1 L3.1 .2 L2.6 3.9 Z" fill="#D6DBD6"/><path d="M1.8 -.5 L2.8 -2.3 L5 -3.4 L7.7 -3.1 L10.5 -3.5 L12.5 -2.5 L13.6 -.5 L12 -.8 L10 -1.6 L7.7 -1.4 L5 -1.2 L3.1 .1 Z" fill="#F4F2E6"/><path d="M3.9 2.1 L6.4 1.9 M9.4 1.9 L12.1 2.2" fill="none" stroke="#B5AA91" stroke-width="0.37" stroke-linecap="round" stroke-linejoin="round"/><ellipse cx="8" cy="5.8" rx="1.2" ry="0.65" fill="#CEA98F"/><path d="M3.6 5.5 L4.8 6.2 L5.1 7.5 M12.5 5.5 L11.3 6.2 L11 7.5" fill="none" stroke="#CEA98F" stroke-width="0.26" stroke-linecap="round" stroke-linejoin="round"/><g><g class="pupils"><path d="M4.4 4.05 Q5.4 4.3 6.4 4.05" fill="none" stroke="#574B40" stroke-width="0.25" stroke-linecap="round" stroke-linejoin="round"/><path d="M9.7 4.05 Q10.7 4.3 11.7 4.05" fill="none" stroke="#574B40" stroke-width="0.25" stroke-linecap="round" stroke-linejoin="round"/></g></g><ellipse cx="5.4" cy="4.15" rx="2.2" ry="1.5" fill="none" stroke="#84847A" stroke-width="0.22"/><ellipse cx="10.7" cy="4.15" rx="2.2" ry="1.5" fill="none" stroke="#84847A" stroke-width="0.22"/><path d="M7.6000000000000005 3.85 L8.5 3.85 M3.2 3.9 L1.7 3.5 M12.899999999999999 3.9 L13.9 3.5" fill="none" stroke="#84847A" stroke-width="0.22" stroke-linecap="round" stroke-linejoin="round"/><path d="M6 7.5 Q8 6.9 10 7.5" fill="none" stroke="#987360" stroke-width="0.26" stroke-linecap="round" stroke-linejoin="round"/></g>

</g></g>
<g class="bubble">
<rect x="1.800" y="-11.800" width="11.400" height="5.400" rx="1" ry="1" fill="#FFFFFF" stroke="#1E2A47" stroke-width="0.5"/>
<polygon points="6.200,-6.700 8.800,-6.700 7.500,-4.200" fill="#FFFFFF" stroke="#1E2A47" stroke-width="0.5" stroke-linejoin="round"/>
<rect x="6.300" y="-7.100" width="2.4" height="0.8" fill="#FFFFFF"/>
<rect x="3.000" y="-10.600" width="0.600" height="0.600" fill="#C83A45"/>
<rect x="4.200" y="-10.600" width="0.600" height="0.600" fill="#C83A45"/>
<rect x="3.000" y="-10.000" width="0.600" height="0.600" fill="#C83A45"/>
<rect x="4.200" y="-10.000" width="0.600" height="0.600" fill="#C83A45"/>
<rect x="3.000" y="-9.400" width="0.600" height="0.600" fill="#C83A45"/>
<rect x="3.600" y="-9.400" width="0.600" height="0.600" fill="#C83A45"/>
<rect x="4.200" y="-9.400" width="0.600" height="0.600" fill="#C83A45"/>
<rect x="3.000" y="-8.800" width="0.600" height="0.600" fill="#C83A45"/>
<rect x="4.200" y="-8.800" width="0.600" height="0.600" fill="#C83A45"/>
<rect x="3.000" y="-8.200" width="0.600" height="0.600" fill="#C83A45"/>
<rect x="4.200" y="-8.200" width="0.600" height="0.600" fill="#C83A45"/>
<rect x="5.400" y="-10.600" width="0.600" height="0.600" fill="#C83A45"/>
<rect x="6.000" y="-10.600" width="0.600" height="0.600" fill="#C83A45"/>
<rect x="6.600" y="-10.600" width="0.600" height="0.600" fill="#C83A45"/>
<rect x="5.400" y="-10.000" width="0.600" height="0.600" fill="#C83A45"/>
<rect x="5.400" y="-9.400" width="0.600" height="0.600" fill="#C83A45"/>
<rect x="6.000" y="-9.400" width="0.600" height="0.600" fill="#C83A45"/>
<rect x="5.400" y="-8.800" width="0.600" height="0.600" fill="#C83A45"/>
<rect x="5.400" y="-8.200" width="0.600" height="0.600" fill="#C83A45"/>
<rect x="6.000" y="-8.200" width="0.600" height="0.600" fill="#C83A45"/>
<rect x="6.600" y="-8.200" width="0.600" height="0.600" fill="#C83A45"/>
<rect x="7.800" y="-10.600" width="0.600" height="0.600" fill="#C83A45"/>
<rect x="9.000" y="-10.600" width="0.600" height="0.600" fill="#C83A45"/>
<rect x="7.800" y="-10.000" width="0.600" height="0.600" fill="#C83A45"/>
<rect x="9.000" y="-10.000" width="0.600" height="0.600" fill="#C83A45"/>
<rect x="8.400" y="-9.400" width="0.600" height="0.600" fill="#C83A45"/>
<rect x="8.400" y="-8.800" width="0.600" height="0.600" fill="#C83A45"/>
<rect x="8.400" y="-8.200" width="0.600" height="0.600" fill="#C83A45"/>
<rect x="10.800" y="-10.600" width="0.600" height="0.600" fill="#C83A45"/>
<rect x="10.800" y="-10.000" width="0.600" height="0.600" fill="#C83A45"/>
<rect x="10.800" y="-9.400" width="0.600" height="0.600" fill="#C83A45"/>
<rect x="10.800" y="-8.200" width="0.600" height="0.600" fill="#C83A45"/>
</g>
</svg>
