<svg xmlns="http://www.w3.org/2000/svg" viewBox="-15 -25 45 45">
  <style>
  </style>
  <g id="shadow-js" style="transform-origin: 7.5px 15px">
    <ellipse cx="7.5" cy="17.0" rx="6.4" ry="1.35" fill="rgba(47,32,18,0.15)"/>
  </g>
  <g id="body-js">
    <path d="M4.8 -5.6 C4.8 -8.8, 10.2 -8.8, 10.2 -5.6" fill="none" stroke="#e4c36a" stroke-width="0.95" stroke-linecap="round"/><rect x="3.6" y="-5.0" width="7.8" height="1.5" rx="0.5" fill="#e4c36a"/><rect x="3.6" y="14.4" width="2.2" height="1.7" rx="0.85" fill="#e4c36a"/><rect x="9.2" y="14.4" width="2.2" height="1.7" rx="0.85" fill="#e4c36a"/><ellipse cx="7.5" cy="5.8" rx="6.0" ry="7.8" fill="#c23b3b"/><rect x="3.8" y="12.8" width="7.4" height="1.3" rx="0.45" fill="#e4c36a"/><path d="M7.5 14.1 L7.5 17.4" stroke="#e4c36a" stroke-width="0.7" stroke-linecap="round"/><circle cx="7.5" cy="18.0" r="0.7" fill="#e4c36a"/><ellipse cx="7.5" cy="10.4" rx="4.2" ry="2.4" fill="#8d2424" opacity="0.16"/><ellipse cx="4.8" cy="7.8" rx="0.85" ry="0.45" fill="#f2b8a8" opacity="0.55"/><ellipse cx="10.2" cy="7.8" rx="0.85" ry="0.45" fill="#f2b8a8" opacity="0.55"/>
    
  </g>
  <g id="eyes-js">
    <path d="M4.2 4.4 q1.2 0.7 2.3 0" fill="none" stroke="#3b1414" stroke-width="0.6" stroke-linecap="round"/><path d="M8.6 4.4 q1.2 0.7 2.3 0" fill="none" stroke="#3b1414" stroke-width="0.6" stroke-linecap="round"/>
  </g>
</svg>
