<svg xmlns="http://www.w3.org/2000/svg" viewBox="-15 -25 45 45">
  <style>
    @keyframes tap { 0%,100%{transform:translateY(0)} 50%{transform:translateY(0.35px)} }
    @keyframes dots { 0%,80%,100%{opacity:.2} 40%{opacity:1} }
    #body-js { animation: tap 0.7s ease-in-out infinite; }
    .d1 { animation: dots 1.2s ease-in-out infinite; }
    .d2 { animation: dots 1.2s ease-in-out .2s infinite; }
    .d3 { animation: dots 1.2s ease-in-out .4s infinite; }

  </style>
  <g id="shadow-js" style="transform-origin: 7.5px 15px">
    <ellipse cx="7.5" cy="17.0" rx="6.4" ry="1.35" fill="rgba(47,32,18,0.15)"/>
  </g>
  <g id="body-js">
    <rect x="-1.2" y="8.4" width="3.3" height="2.0" rx="1.00" fill="#d7e5f3"/><rect x="12.9" y="8.4" width="3.3" height="2.0" rx="1.00" fill="#d7e5f3"/><ellipse cx="3.0" cy="6.4" rx="4.2" ry="3.6" fill="#d7e5f3"/><ellipse cx="12.0" cy="6.6" rx="4.4" ry="3.7" fill="#d7e5f3"/><ellipse cx="7.5" cy="3.8" rx="5.6" ry="4.6" fill="#d7e5f3"/><ellipse cx="7.5" cy="8.6" rx="5.8" ry="2.2" fill="#9bb3c9" opacity="0.14"/><ellipse cx="5.0" cy="6.4" rx="0.85" ry="0.45" fill="#c8d8ea" opacity="0.55"/><ellipse cx="10.0" cy="6.4" rx="0.85" ry="0.45" fill="#c8d8ea" opacity="0.55"/><path d="M6.2 6.8 q1.4 1.15 2.7 0" fill="none" stroke="#9bb3c9" stroke-width="0.45" stroke-linecap="round"/><ellipse cx="4.6" cy="16.2" rx="0.5" ry="0.9" fill="#6f92b3"/><ellipse cx="7.5" cy="17.6" rx="0.45" ry="0.85" fill="#6f92b3"/><ellipse cx="10.4" cy="16.2" rx="0.5" ry="0.9" fill="#6f92b3"/>
    <circle class="d1" cx="17.4" cy="1.2" r="0.5" fill="#2a3b4c"/><circle class="d2" cx="19" cy="1.2" r="0.5" fill="#2a3b4c"/><circle class="d3" cx="20.6" cy="1.2" r="0.5" fill="#2a3b4c"/>
  </g>
  <g id="eyes-js">
    <circle cx="5.4" cy="3.8" r="0.88" fill="#2a3b4c"/><circle cx="9.6" cy="3.8" r="0.88" fill="#2a3b4c"/><circle cx="5.7" cy="3.5199999999999996" r="0.2288" fill="#fff8ee"/><circle cx="9.9" cy="3.5199999999999996" r="0.2288" fill="#fff8ee"/>
  </g>
</svg>
