<svg xmlns="http://www.w3.org/2000/svg" viewBox="-15 -25 45 45" width="500" height="500" shape-rendering="crispEdges">
<defs><style>
#arm-L { transform-origin: 2.25px 9.5px; } #arm-R { transform-origin: 13.75px 9.5px; }
#arm-L { transform: rotate(-25deg); }
#arm-R { transform: rotate(25deg); }

.breathe { transform-origin: 7.5px 15px; animation: breathe 3.4s infinite ease-in-out; }
@keyframes breathe { 0%,100% { transform: scale(1,1); } 50% { transform: scale(1.015,0.985); } }
.pupils { transform-origin: 7.5px 4.8px; animation: blink 4.6s infinite ease-in-out; }
@keyframes blink { 0%,8%,100% { transform: scaleY(1); } 4% { transform: scaleY(0.1); } }
#eyes-js, #body-js, #shadow-js { transition: transform 0.2s ease-out; }
#shadow-js { transform-origin: 7.5px 15px; }

.hand-l { animation: tap 0.28s infinite alternate ease-in-out; } .hand-r { animation: tap 0.28s 0.14s infinite alternate ease-in-out both; }
@keyframes tap { from { transform: translateY(0); } to { transform: translateY(-0.6px); } }
.code1 { animation: code 1.6s infinite step-end; } .code2 { animation: code 1.6s 0.4s infinite step-end both; } .code3 { animation: code 1.6s 0.8s infinite step-end both; }
@keyframes code { 0% { opacity: 0; } 30%,100% { opacity: 1; } }

</style></defs>
<g id="shadow-js"><rect x="2.5" y="15.3" width="11" height="0.9" fill="#000000" opacity="0.35"/></g>
<g id="leg-L"><rect x="4" y="13.4" width="3" height="1.4" fill="#577591"/><rect x="3.6" y="14.6" width="3.6" height="0.8" fill="#111111"/></g><g id="leg-R"><rect x="9" y="13.4" width="3" height="1.4" fill="#577591"/><rect x="8.8" y="14.6" width="3.6" height="0.8" fill="#111111"/></g>
<g id="body-js"><g class="breathe">
<g id="arm-L">
<rect x="1.5" y="9.3" width="1.5" height="4" fill="#171923"/>
</g>
<g id="arm-R">
<rect x="13" y="9.3" width="1.5" height="4" fill="#171923"/>
</g>
<rect x="3" y="9" width="10" height="4.6" fill="#171923"/><rect x="5" y="8.6" width="6" height="1.6" fill="#171923"/><rect x="4" y="13" width="8" height="0.5" fill="#111827"/>
<g id="laptop"><rect x="3.6" y="12.2" width="8.8" height="1.2" fill="#4A5468"/><rect x="4.2" y="8.6" width="7.6" height="3.7" fill="#8A93A6"/><rect x="4.6" y="9" width="6.8" height="2.9" fill="#0B1F00"/><rect x="5" y="9.4" width="2.6" height="0.5" fill="#76B900" class="code1"/><rect x="5" y="10.2" width="4" height="0.5" fill="#FFFFFF" class="code2"/><rect x="5" y="11" width="3.2" height="0.5" fill="#A3E635" class="code3"/><g class="hand-l"><rect x="5" y="11.4" width="1.4" height="0.9" fill="#F0CBAB"/></g><g class="hand-r"><rect x="9.6" y="11.4" width="1.4" height="0.9" fill="#F0CBAB"/></g></g>
<g id="head"><path d="M4 -2 L6 -3.4 L10 -3.4 L12 -1.7 L12.5 1 L12 5.8 L10.8 8.3 L9 9.3 L6.5 9.3 L4.8 7.7 L3.6 5 L3.2 1 Z" fill="#DDB698"/><ellipse cx="2.5" cy="3.8" rx="0.8" ry="1.6" fill="#DDB698"/><ellipse cx="12.9" cy="3.8" rx="0.8" ry="1.6" fill="#DDB698"/><path d="M2.3 3 L2.6 4.4 M13.0 3 L12.8 4.4" fill="none" stroke="#B9947D" stroke-width="0.25" stroke-linecap="round" stroke-linejoin="round"/><path d="M3.3 -.5 L2.8 .3 L3 3.5 L3.7 4.5 L4 1 L4 -.7 Z" fill="#888985"/><path d="M11.9 -.5 L12.7 .4 L12.6 3.8 L11.9 4.7 L11.5 1 Z" fill="#888985"/><path d="M4 5.5 L4.8 6.3 L5.7 7.1 L6.6 7.5 L9.3 7.5 L10.2 6.7 L11.7 5.4 L11 8 L9 9.2 L6.6 9.2 L4.8 7.7 Z" fill="#AC9B8A"/><path d="M5.3 7 L6 8 M6.5 8 L7 8.6 M8.5 8.3 L9 8.8 M10.2 7.3 L10 8.1" fill="none" stroke="#D5C6B4" stroke-width="0.3" stroke-linecap="round" stroke-linejoin="round"/><path d="M4.3 2 L6.5 1.7 M9.2 1.7 L11.5 2" fill="none" stroke="#5E554A" stroke-width="0.42" stroke-linecap="round" stroke-linejoin="round"/><path d="M7.8 3.4 L7 5.8 L8 6.3 L9 5.9" fill="none" stroke="#B9947D" stroke-width="0.38" stroke-linecap="round" stroke-linejoin="round"/><ellipse cx="5.5" cy="3.45" rx="1.05" ry="0.84" fill="#F9EDDE"/><path d="M4.4 3.4000000000000004 Q5.5 2.39 6.6 3.35" fill="none" stroke="#846A57" stroke-width="0.28" stroke-linecap="round" stroke-linejoin="round"/><ellipse cx="10.4" cy="3.45" rx="1.05" ry="0.84" fill="#F9EDDE"/><path d="M9.3 3.4000000000000004 Q10.4 2.39 11.5 3.35" fill="none" stroke="#846A57" stroke-width="0.28" stroke-linecap="round" stroke-linejoin="round"/><g><g class="pupils"><ellipse cx="5.5" cy="3.6075000000000004" rx="0.38" ry="0.52" fill="#4F5047"/><ellipse cx="5.5" cy="3.6075000000000004" rx="0.18" ry="0.36" fill="#272E30"/><ellipse cx="10.4" cy="3.6075000000000004" rx="0.38" ry="0.52" fill="#4F5047"/><ellipse cx="10.4" cy="3.6075000000000004" rx="0.18" ry="0.36" fill="#272E30"/></g></g><ellipse cx="5.5" cy="3.7" rx="2" ry="1.7" fill="none" stroke="#878C87" stroke-width="0.2"/><ellipse cx="10.4" cy="3.7" rx="2" ry="1.7" fill="none" stroke="#878C87" stroke-width="0.2"/><path d="M7.5 3.4000000000000004 L8.4 3.4000000000000004 M3.5 3.45 L2.7 3.0500000000000003 M12.4 3.45 L12.8 3.0500000000000003" fill="none" stroke="#878C87" stroke-width="0.2" stroke-linecap="round" stroke-linejoin="round"/><path d="M6.5 7.25 Q8 6.85 9.6 7.25 L9.2 7.7 L7 7.7 Z" fill="#987360"/></g>

</g></g>

</svg>
