<svg xmlns="http://www.w3.org/2000/svg" viewBox="-15 -25 45 45" width="500" height="500" shape-rendering="crispEdges">
<defs><style>
#arm-L { transform-origin: 2.25px 9.5px; } #arm-R { transform-origin: 13.75px 9.5px; }
#arm-R { transform: rotate(150deg); }

.breathe { transform-origin: 7.5px 15px; animation: breathe 3.4s infinite ease-in-out; }
@keyframes breathe { 0%,100% { transform: scale(1,1); } 50% { transform: scale(1.015,0.985); } }
.pupils { transform-origin: 7.5px 4.8px; animation: blink 4.6s infinite ease-in-out; }
@keyframes blink { 0%,8%,100% { transform: scaleY(1); } 4% { transform: scaleY(0.1); } }
#eyes-js, #body-js, #shadow-js { transition: transform 0.2s ease-out; }
#shadow-js { transform-origin: 7.5px 15px; }

.thumb { animation: tap 0.3s infinite alternate ease-in-out; }
@keyframes tap { from { transform: translateY(0); } to { transform: translateY(-0.4px); } }
.dots rect { animation: dot 1.2s infinite both; } .dots rect:nth-child(2) { animation-delay: 0.2s; } .dots rect:nth-child(3) { animation-delay: 0.4s; }
@keyframes dot { 0%,100% { opacity: 0.2; } 50% { opacity: 1; } }
.fly { animation: fly 4s infinite linear both; }
@keyframes fly { 0% { transform: translate(0,0); opacity: 0; } 10% { opacity: 1; } 90% { opacity: 1; } 100% { transform: translate(6px,-9px); opacity: 0; } }
.inspect { transform-origin: 12px 5px; animation: inspect 2.4s infinite ease-in-out; }
@keyframes inspect { 0%,100% { transform: rotate(-6deg); } 50% { transform: rotate(6deg); } }

</style></defs>
<rect x="16" y="-3" width="1" height="18" fill="#945333"/><rect x="16" y="-3" width="1" height="3" fill="#EFCB5B"/><rect x="16" y="12" width="1" height="3" fill="#EFCB5B"/><g id="shadow-js"><rect x="2.5" y="15.3" width="11" height="0.9" fill="#000000" opacity="0.35"/></g>
<g id="leg-L"><rect x="4" y="13" width="2.8" height="1.8" fill="#DEA64C"/><rect x="3.5" y="14.3" width="3.8" height="1.2" fill="#DEA64C"/></g><g id="leg-R"><rect x="9" y="13" width="2.8" height="1.8" fill="#DEA64C"/><rect x="8.5" y="14.3" width="3.8" height="1.2" fill="#DEA64C"/></g>
<g id="body-js"><g class="breathe">
<g id="arm-L"><rect x="0.9" y="9" width="1.7" height="3.8" fill="#E8BE4C"/><rect x="0.6" y="12" width="2.3" height="1.7" fill="#E8BE4C"/></g>
<g id="arm-R"><rect x="13.3" y="9" width="1.7" height="3.8" fill="#E8BE4C"/><rect x="13" y="12" width="2.3" height="1.7" fill="#E8BE4C"/></g>
<rect x="3" y="9" width="10" height="4.8" fill="#E8BE4C"/><polygon points="3,8.8 13,8.8 12,10.3 4,10.3" fill="#CE4641" /><polygon points="12,9 18,10 19,12 14,11" fill="#CE4641" /><rect x="3" y="12" width="10" height="2.2" fill="#D69D48"/><polygon points="4,12 5.2,12 4.4,14 3.6,13.5" fill="#765232" /><polygon points="7,12 8.2,12 7.4,14 6.6,13.5" fill="#765232" /><polygon points="10,12 11.2,12 10.4,14 9.6,13.5" fill="#765232" /><polygon points="12,12 13.2,12 12.4,14 11.6,13.5" fill="#765232" />

<g id="head">
<polygon points="2,0 13,0 15,2 14,6 12,9 4,9 1,6 0,2" fill="#BD8954" /><polygon points="4,1 7,2 8,3 9,2 12,1 14,3 12,6 11,8 5,8 4,6 2,3" fill="#ECCC9F" /><polygon points="1,2 -1,1 -2,3 0,5 2,5" fill="#DAAC7A" /><polygon points="14,2 17,1 18,3 16,5 14,5" fill="#DAAC7A" />
<polygon points="1,4 0,1 1,-2 3,-2 3,-4 6,-3 8,-5 10,-3 13,-4 13,-2 15,-1 16,2 15,5 13,3 12,0 4,0 3,3" fill="#94623A" /><rect x="1" y="-0.2" width="14" height="1" fill="#F1CB55"/><rect x="1" y="0.8" width="14" height="0.35" fill="#B78A2D"/><path d="M6 .1 C5 -1.5 7 -1.9 8 -.6 C9 -1.9 11 -1.5 10 .1" fill="none" stroke="#F1CB55" stroke-width=".6"/>
<g ><g class="pupils"><rect x="4.44" y="2.52" width="1.2" height="1.8" fill="#1E2A47"/><rect x="4.45" y="2.55" width="0.35" height="0.45" fill="#FFFFFF"/><rect x="10.74" y="2.52" width="1.2" height="1.8" fill="#1E2A47"/><rect x="10.75" y="2.55" width="0.35" height="0.45" fill="#FFFFFF"/></g></g><rect x="6.8" y="4.7" width="2.5" height="0.8" fill="#AD704C"/><path d="M5.7 6.5 Q8 8.3 10.3 6.5" fill="none" stroke="#955D3D" stroke-width=".4"/><polygon points="3.5,2 6.5,1.5 6.5,2.1 3.5,2.7" fill="#845331" /><polygon points="9.5,1.5 12.5,2 12.5,2.7 9.5,2.1" fill="#845331" />
</g>
<g class="inspect" transform="translate(11 4)"><polygon points="0,2 1,0 3,1 5,0 6,2 5,4 3,5 1,4" fill="#E79784" /><polygon points="3,1 3,-1 5,-2 5,-.5" fill="#739753" /></g>
</g></g>

</svg>
